<svg width="23" height="16" viewBox="0 0 23 16" fill="none" xmlns="http://www.w3.org/2000/svg">
<path d="M13.1213 4.8C13.1213 4.7 13.1548 4.60417 13.2217 4.5125C13.2886 4.42083 13.3638 4.35833 13.4474 4.325C13.9492 4.14167 14.4635 4 14.9903 3.9C15.5171 3.8 16.0648 3.75 16.6335 3.75C17.0014 3.75 17.361 3.77083 17.7122 3.8125C18.0634 3.85417 18.4063 3.91667 18.7408 4C18.8411 4.03333 18.9331 4.09583 19.0167 4.1875C19.1003 4.27917 19.1421 4.38333 19.1421 4.5C19.1421 4.68333 19.0794 4.825 18.954 4.925C18.8286 5.025 18.6739 5.05 18.4899 5C18.2056 4.91667 17.9087 4.85417 17.5993 4.8125C17.2899 4.77083 16.968 4.75 16.6335 4.75C16.1485 4.75 15.6802 4.79583 15.2286 4.8875C14.777 4.97917 14.3338 5.11667 13.899 5.3C13.6649 5.38333 13.4767 5.37917 13.3345 5.2875C13.1924 5.19583 13.1213 5.03333 13.1213 4.8ZM13.1213 10.3C13.1213 10.2 13.1548 10.1 13.2217 10C13.2886 9.9 13.3638 9.83333 13.4474 9.8C13.9492 9.61667 14.4635 9.47917 14.9903 9.3875C15.5171 9.29583 16.0648 9.25 16.6335 9.25C17.0014 9.25 17.361 9.27083 17.7122 9.3125C18.0634 9.35417 18.4063 9.41667 18.7408 9.5C18.8411 9.53333 18.9331 9.59583 19.0167 9.6875C19.1003 9.77917 19.1421 9.88333 19.1421 10C19.1421 10.1833 19.0794 10.325 18.954 10.425C18.8286 10.525 18.6739 10.55 18.4899 10.5C18.2056 10.4167 17.9087 10.3542 17.5993 10.3125C17.2899 10.2708 16.968 10.25 16.6335 10.25C16.1485 10.25 15.6802 10.2917 15.2286 10.375C14.777 10.4583 14.3338 10.5917 13.899 10.775C13.6649 10.8583 13.4767 10.8583 13.3345 10.775C13.1924 10.6917 13.1213 10.5333 13.1213 10.3ZM13.1213 7.55C13.1213 7.45 13.1548 7.35417 13.2217 7.2625C13.2886 7.17083 13.3638 7.10833 13.4474 7.075C13.9492 6.89167 14.4635 6.75 14.9903 6.65C15.5171 6.55 16.0648 6.5 16.6335 6.5C17.0014 6.5 17.361 6.52083 17.7122 6.5625C18.0634 6.60417 18.4063 6.66667 18.7408 6.75C18.8411 6.78333 18.9331 6.84583 19.0167 6.9375C19.1003 7.02917 19.1421 7.13333 19.1421 7.25C19.1421 7.43333 19.0794 7.575 18.954 7.675C18.8286 7.775 18.6739 7.8 18.4899 7.75C18.2056 7.66667 17.9087 7.60417 17.5993 7.5625C17.2899 7.52083 16.968 7.5 16.6335 7.5C16.1485 7.5 15.6802 7.54583 15.2286 7.6375C14.777 7.72917 14.3338 7.86667 13.899 8.05C13.6649 8.13333 13.4767 8.12917 13.3345 8.0375C13.1924 7.94583 13.1213 7.78333 13.1213 7.55ZM5.29423 12.5C6.19735 12.5 7.07121 12.6042 7.9158 12.8125C8.76039 13.0208 9.59243 13.3333 10.4119 13.75V3.075C9.65933 2.575 8.84401 2.1875 7.96597 1.9125C7.08793 1.6375 6.19735 1.5 5.29423 1.5C4.65869 1.5 4.03571 1.57917 3.42526 1.7375C2.81481 1.89583 2.20019 2.09167 1.58138 2.325V13.175C2.09984 12.9417 2.68938 12.7708 3.35 12.6625C4.01062 12.5542 4.65869 12.5 5.29423 12.5ZM11.9171 13.75C12.7534 13.3333 13.5729 13.0208 14.3757 12.8125C15.1784 12.6042 16.0314 12.5 16.9345 12.5C17.57 12.5 18.2265 12.55 18.9038 12.65C19.5812 12.75 20.1623 12.8833 20.6474 13.05V2.325C20.0787 2.04167 19.4766 1.83333 18.8411 1.7C18.2056 1.56667 17.57 1.5 16.9345 1.5C16.0314 1.5 15.1575 1.6375 14.3129 1.9125C13.4683 2.1875 12.6697 2.575 11.9171 3.075V13.75ZM11.1645 15.725C11.0307 15.725 10.9095 15.7125 10.8008 15.6875C10.6921 15.6625 10.5959 15.6167 10.5123 15.55C9.72623 15.0667 8.89 14.6917 8.0036 14.425C7.1172 14.1583 6.21408 14.025 5.29423 14.025C4.67542 14.025 4.07334 14.1 3.48798 14.25C2.90262 14.4 2.31726 14.5833 1.7319 14.8C1.34724 14.9833 0.975116 14.9583 0.615538 14.725C0.255961 14.4917 0.0761719 14.1583 0.0761719 13.725V2.15C0.0761719 1.9 0.134708 1.67083 0.251779 1.4625C0.368851 1.25417 0.544459 1.09167 0.778602 0.975C1.48103 0.641667 2.21273 0.395834 2.9737 0.2375C3.73466 0.0791669 4.50817 0 5.29423 0C6.34787 0 7.37225 0.141667 8.36736 0.425C9.36247 0.708333 10.2949 1.14167 11.1645 1.725C12.0175 1.14167 12.9332 0.708333 13.9115 0.425C14.8899 0.141667 15.8976 0 16.9345 0C17.7206 0 18.4899 0.0791669 19.2425 0.2375C19.9951 0.395834 20.7226 0.641667 21.425 0.975C21.6592 1.09167 21.839 1.25417 21.9644 1.4625C22.0898 1.67083 22.1526 1.9 22.1526 2.15V13.725C22.1526 14.1917 21.9644 14.5458 21.5881 14.7875C21.2118 15.0292 20.8397 15.0333 20.4717 14.8C19.9031 14.5667 19.3261 14.3792 18.7408 14.2375C18.1554 14.0958 17.5533 14.025 16.9345 14.025C16.0314 14.025 15.145 14.1583 14.2753 14.425C13.4056 14.6917 12.5861 15.0667 11.8168 15.55C11.7332 15.6167 11.637 15.6625 11.5283 15.6875C11.4196 15.7125 11.2983 15.725 11.1645 15.725Z" fill="#A3A3A3"/>
</svg>
