<svg width="60" height="60" viewBox="0 0 60 60" fill="none" xmlns="http://www.w3.org/2000/svg">
<path d="M7.14286 0C3.2 0 0 3.2 0 7.14286V52.8571C0 56.8 3.2 60 7.14286 60H52.8571C56.8 60 60 56.8 60 52.8571V7.14286C60 3.2 56.8 0 52.8571 0H7.14286ZM11.4286 20H21.0435C22.0864 20 27.7288 19.929 27.7288 25.1004C27.7288 27.8433 25.8568 28.771 25.014 29.1853C26.2711 29.5853 28.5714 30.7429 28.5714 34.2857C28.5714 39.7571 22.2993 40 21.4565 40H11.4286V20ZM35.7143 20H45.7143V22.8571H35.7143V20ZM15.7143 23.471V28.1585H20.3153C20.9439 28.1585 23.0273 27.8143 23.0273 25.7143C23.0273 23.6143 20.3138 23.471 19.8996 23.471H15.7143ZM41.0435 24.2857C46.615 24.2857 48.128 28.6282 48.3566 29.6568C48.5709 30.6997 48.5714 31.6143 48.5714 32.8571H37.2852C37.2852 34.1 37.9438 36.9001 41.2723 36.9001C42.158 36.9001 42.8135 36.6866 43.4849 36.2723C44.1421 35.858 44.3728 35.4561 44.5871 35.0419H48.3426C47.6855 36.6847 46.8001 37.9298 45.4715 38.7584C44.143 39.5869 42.6001 40 40.8287 40C39.7144 40 38.6143 39.7865 37.5 39.3722C36.6143 38.9579 35.7297 38.3431 35.0725 37.7288C34.4154 37.1002 33.9724 36.2713 33.5296 35.2427C33.0867 34.4142 32.8571 33.1714 32.8571 32.1429C32.8571 31.1143 33.2721 24.2857 41.0435 24.2857ZM41.0435 27.1847C37.815 27.1847 37.2852 30.2855 37.2852 30.4855H44.3722C44.1436 29.4569 43.215 27.1847 41.0435 27.1847ZM15.7143 31.0156V36.529H20.5022C20.9151 36.529 23.8281 36.4013 23.8281 33.8728C23.8281 31.3585 21.5394 31.0156 20.5022 31.0156H15.7143Z" fill="#F4F4F4"/>
</svg>
