<svg width="32" height="24" viewBox="0 0 32 24" fill="none" xmlns="http://www.w3.org/2000/svg">
<path d="M31.382 1.90552L16.382 14.679C16.2725 14.772 16.1363 14.8189 16.0001 14.8189C15.8638 14.8189 15.7276 14.772 15.6181 14.679L0.61904 1.90552C0.229459 2.52039 0 3.24295 0 4.01816V19.7928C0 20.6427 0.272431 21.4309 0.734106 22.081L9.86274 12.5305C10.0825 12.3002 10.4513 12.289 10.6856 12.5043C10.9199 12.7197 10.9324 13.0812 10.7123 13.3108L1.52951 22.9187C2.23346 23.4758 3.12702 23.8115 4.10031 23.8115H27.9006C28.8739 23.8115 29.7674 23.4762 30.4714 22.9187L21.2877 13.3108C21.068 13.0812 21.0801 12.7197 21.3144 12.5043C21.5487 12.289 21.9175 12.3005 22.1373 12.5305L31.2659 22.081C31.7272 21.4311 32 20.6434 32 19.7928V4.01816C32 3.24261 31.7705 2.52036 31.381 1.90552H31.382Z" fill="#F4F4F4"/>
<path d="M30.6339 1.03071C29.9074 0.392056 28.9518 0 27.9012 0H4.10094C3.05072 0 2.09518 0.39236 1.36865 1.03071L16.0004 13.4919L30.6339 1.03071Z" fill="#F4F4F4"/>
</svg>
