<svg width="60" height="59" viewBox="0 0 60 59" fill="none" xmlns="http://www.w3.org/2000/svg">
<path d="M29.9896 4.04729e-05C22.8699 -0.00669589 15.9805 2.52219 10.5559 7.13347C5.13137 11.7448 1.52621 18.1371 0.386459 25.1648C-0.753276 32.1927 0.646886 39.3968 4.33607 45.486C8.02525 51.5755 13.7623 56.1521 20.5192 58.3958C22.0147 58.6563 22.4888 57.7784 22.4888 56.9864C22.4888 56.2696 22.5044 54.2845 22.4888 51.7756C14.1518 53.5838 12.4297 47.8285 12.4297 47.8285C11.88 46.0178 10.7008 44.4636 9.10528 43.4463C6.38531 41.5863 9.30848 41.6225 9.30848 41.6225C10.2581 41.7529 11.1654 42.0987 11.9611 42.6333C12.7567 43.1678 13.4195 43.8775 13.8991 44.7074C14.3047 45.4465 14.8528 46.0977 15.5118 46.6238C16.1708 47.1496 16.9275 47.5396 17.7382 47.7715C18.5488 48.003 19.3974 48.0715 20.2347 47.9733C21.0721 47.8748 21.8816 47.6114 22.6165 47.1979C22.7547 45.6835 23.4292 44.268 24.5183 43.2068C17.867 42.4459 10.8717 39.8771 10.8717 28.3928C10.8295 25.4157 11.935 22.5366 13.959 20.3528C13.0418 17.7696 13.1462 14.9336 14.2508 12.4248C14.2508 12.4248 16.7701 11.6198 22.4888 15.4991C27.4004 14.1513 32.5841 14.1513 37.4954 15.4991C43.2273 11.6224 45.7257 12.4248 45.7257 12.4248C46.8305 14.9332 46.9369 17.7687 46.0227 20.3528C48.0472 22.5379 49.1512 25.4195 49.1048 28.398C49.1048 39.9136 42.099 42.4435 35.4243 43.1806C36.1413 43.9009 36.6952 44.7668 37.0489 45.7197C37.4026 46.6726 37.5477 47.6902 37.4746 48.7039V56.9992C37.4746 57.7991 37.9593 58.6849 39.4808 58.3958C46.2393 56.1515 51.9774 51.5733 55.6666 45.4816C59.3555 39.3903 60.7544 32.1837 59.6119 25.1547C58.4694 18.1254 54.8604 11.7329 49.4321 7.12329C44.0037 2.51369 37.1111 -0.0116595 29.9896 4.04729e-05Z" fill="#F4F4F4"/>
</svg>
