<svg width="19" height="15" viewBox="0 0 19 15" fill="none" xmlns="http://www.w3.org/2000/svg">
<path d="M0 14.3748V12.3534H1.97083V1.34764C1.97083 0.973294 2.10451 0.655102 2.37188 0.393061C2.63924 0.13102 2.96389 0 3.34583 0H17.5542V1.34764H3.34583V12.3534H8.70833V14.3748H0ZM10.9771 14.3748C10.7174 14.3748 10.5035 14.2737 10.3354 14.0716C10.1674 13.8694 10.0833 13.6411 10.0833 13.3865V3.57124C10.0833 3.31669 10.1674 3.10706 10.3354 2.94234C10.5035 2.77763 10.7174 2.69528 10.9771 2.69528H17.2104C17.5007 2.69528 17.7604 2.77389 17.9896 2.93111C18.2188 3.08834 18.3333 3.30171 18.3333 3.57124V13.3865C18.3333 13.671 18.2226 13.9069 18.001 14.0941C17.7795 14.2812 17.516 14.3748 17.2104 14.3748H10.9771ZM11.4583 12.3534H16.9583V4.04292H11.4583V12.3534Z" fill="#A3A3A3"/>
</svg>
