<svg width="60" height="60" viewBox="0 0 60 60" fill="none" xmlns="http://www.w3.org/2000/svg">
<path fill-rule="evenodd" clip-rule="evenodd" d="M10.9091 0C4.88416 0 0 4.88416 0 10.9091V49.0909C0 55.1157 4.88416 60 10.9091 60H49.0909C55.1157 60 60 55.1157 60 49.0909V10.9091C60 4.88416 55.1157 0 49.0909 0H10.9091ZM14.1942 18.843C16.7617 18.843 18.843 16.7617 18.843 14.1942C18.843 11.6268 16.7617 9.54545 14.1942 9.54545C11.6268 9.54545 9.54545 11.6268 9.54545 14.1942C9.54545 16.7617 11.6268 18.843 14.1942 18.843ZM18.843 50.4545V22.562H9.54545V50.4545H18.843ZM30.9297 22.562H22.562V50.4545H30.9297V33.6284C32.0078 31.8753 33.8673 30 36.5084 30C40.2273 30 41.157 33.7189 41.157 35.5786V50.4545H50.4545V35.5786C50.4545 30.5956 48.2795 22.562 40.2273 22.562C35.1057 22.562 32.262 24.4305 30.9297 26.1807V22.562Z" fill="#F4F4F4"/>
</svg>
