<svg width="32" height="32" viewBox="0 0 32 32" fill="none" xmlns="http://www.w3.org/2000/svg">
<path d="M16.5235 0.825928C7.98988 0.825928 1.04681 7.63084 1.04681 15.9947C1.04681 18.5538 1.70997 21.0762 2.9675 23.3111L0.0527119 30.2226C-0.0486179 30.4628 -0.00151833 30.738 0.173874 30.9324C0.307436 31.0809 0.498014 31.1626 0.694486 31.1626C0.755534 31.1626 0.817203 31.1547 0.87763 31.1383L8.64963 29.0523C11.0296 30.4337 13.7451 31.1623 16.5233 31.1623C25.0569 31.1623 32 24.358 32 15.9935C32.0003 7.62969 25.0569 0.826339 16.5233 0.826339L16.5235 0.825928ZM23.3897 20.1366L21.7867 23.1807C21.6649 23.4116 21.4241 23.5492 21.17 23.5492C21.1028 23.5492 21.0346 23.5397 20.9674 23.5197C16.2549 22.1098 12.9716 18.6799 12.6146 18.2957C12.2827 18.0065 9.5151 15.4948 8.08119 10.8903C7.98326 10.576 8.1286 10.2379 8.42702 10.0873L11.5333 8.51647C11.8723 8.34457 12.2901 8.47395 12.4667 8.80592L14.2201 12.0952C14.3422 12.3239 14.3214 12.6003 14.1674 12.8093L12.0707 15.647C12.8941 16.7234 13.5448 17.2858 13.5578 17.2974C13.569 17.3065 13.5771 17.3181 13.587 17.3278C13.5981 17.3384 13.6108 17.3469 13.6214 17.3585C13.6387 17.3776 14.5914 18.4091 16.1789 19.5638L19.0088 17.5549C19.222 17.4037 19.504 17.3839 19.7373 17.503L23.094 19.2217C23.4324 19.3948 23.5641 19.804 23.3893 20.1366L23.3897 20.1366Z" fill="#F4F4F4"/>
</svg>
